<svg xmlns="http://www.w3.org/2000/svg" width="1230" height="769" viewBox="0 0 1230.0 768.8607931860525"><rect width="100%" height="100%" fill="#ffffff"/><polygon points="65.00,206.46 65.29,211.69 65.29,176.55" fill="#52626a"/><polygon points="65.00,206.46 65.29,176.55 65.00,176.55" fill="#52626a"/><polygon points="65.00,211.69 65.29,211.69 65.00,206.46" fill="#52626a"/><polygon points="65.29,176.55 76.08,214.61 76.08,176.55" fill="#52626a"/><polygon points="65.29,176.55 65.29,214.61 76.08,214.61" fill="#52626a"/><polygon points="76.08,176.55 82.86,214.61 82.86,176.55" fill="#52626a"/><polygon points="76.08,176.55 76.08,214.61 82.86,214.61" fill="#52626a"/><polygon points="82.86,176.55 100.43,214.61 100.43,176.55" fill="#52626a"/><polygon points="82.86,176.55 82.86,214.61 100.43,214.61" fill="#52626a"/><polygon points="100.43,176.55 126.47,211.69 126.47,176.55" fill="#52626a"/><polygon points="100.43,176.55 100.43,211.69 126.47,211.69" fill="#52626a"/><polygon points="126.47,176.55 161.62,211.69 161.62,176.55" fill="#52626a"/><polygon points="126.47,176.55 126.47,211.69 161.62,211.69" fill="#52626a"/><polygon points="161.62,176.55 176.68,211.69 176.68,176.55" fill="#52626a"/><polygon points="161.62,176.55 161.62,211.69 176.68,211.69" fill="#52626a"/><polygon points="176.68,176.55 181.70,211.69 181.70,176.55" fill="#52626a"/><polygon points="176.68,176.55 176.68,211.69 181.70,211.69" fill="#52626a"/><polygon points="181.70,176.55 190.61,211.69 190.61,176.55" fill="#52626a"/><polygon points="181.70,176.55 181.70,211.69 190.61,211.69" fill="#52626a"/><polygon points="190.61,176.55 196.75,211.69 196.75,176.55" fill="#52626a"/><polygon points="190.61,176.55 190.61,211.69 196.75,211.69" fill="#52626a"/><polygon points="196.75,176.55 198.26,211.69 198.26,176.55" fill="#52626a"/><polygon points="196.75,176.55 196.75,211.69 198.26,211.69" fill="#52626a"/><polygon points="198.26,176.55 199.39,211.69 199.39,176.55" fill="#52626a"/><polygon points="198.26,176.55 198.26,211.69 199.39,211.69" fill="#52626a"/><polygon points="199.39,176.55 220.51,211.69 220.51,176.55" fill="#52626a"/><polygon points="199.39,176.55 199.39,211.69 220.51,211.69" fill="#52626a"/><polygon points="220.51,176.55 238.33,211.69 238.33,176.55" fill="#52626a"/><polygon points="220.51,176.55 220.51,211.69 238.33,211.69" fill="#52626a"/><polygon points="238.33,176.55 275.85,211.69 275.85,176.55" fill="#52626a"/><polygon points="238.33,176.55 238.33,211.69 275.85,211.69" fill="#52626a"/><polygon points="275.85,176.55 277.64,211.69 277.64,176.55" fill="#52626a"/><polygon points="275.85,176.55 275.85,211.69 277.64,211.69" fill="#52626a"/><polygon points="277.64,176.55 339.05,211.69 339.05,176.55" fill="#52626a"/><polygon points="277.64,176.55 277.64,211.69 339.05,211.69" fill="#52626a"/><polygon points="339.05,176.55 440.35,211.69 440.35,176.55" fill="#52626a"/><polygon points="339.05,176.55 339.05,211.69 440.35,211.69" fill="#52626a"/><polygon points="440.35,176.55 455.03,211.69 455.03,176.55" fill="#52626a"/><polygon points="440.35,176.55 440.35,211.69 455.03,211.69" fill="#52626a"/><polygon points="455.03,176.55 462.90,211.69 462.90,176.55" fill="#52626a"/><polygon points="455.03,176.55 455.03,211.69 462.90,211.69" fill="#52626a"/><polygon points="462.90,176.55 467.92,211.69 467.92,176.55" fill="#52626a"/><polygon points="462.90,176.55 462.90,211.69 467.92,211.69" fill="#52626a"/><polygon points="467.92,176.55 470.09,211.69 470.09,176.55" fill="#52626a"/><polygon points="467.92,176.55 467.92,211.69 470.09,211.69" fill="#52626a"/><polygon points="470.09,176.55 471.68,211.69 471.68,176.55" fill="#52626a"/><polygon points="470.09,176.55 470.09,211.69 471.68,211.69" fill="#52626a"/><polygon points="471.68,176.55 474.61,211.69 474.61,176.55" fill="#52626a"/><polygon points="471.68,176.55 471.68,211.69 474.61,211.69" fill="#52626a"/><polygon points="471.68,667.85 474.61,702.98 474.61,667.85" fill="#52626a"/><polygon points="471.68,667.85 471.68,702.98 474.61,702.98" fill="#52626a"/><polygon points="480.66,65.00 482.97,211.69 482.97,65.00" fill="#52626a"/><polygon points="474.61,65.00 474.61,211.69 482.97,211.69" fill="#52626a"/><polygon points="474.61,65.00 482.97,211.69 480.66,65.00" fill="#52626a"/><polygon points="474.61,667.85 482.97,702.98 482.97,667.85" fill="#52626a"/><polygon points="474.61,667.85 474.61,702.98 482.97,702.98" fill="#52626a"/><polygon points="502.35,65.00 509.74,211.69 509.74,65.00" fill="#52626a"/><polygon points="482.97,65.00 482.97,211.69 509.74,211.69" fill="#52626a"/><polygon points="482.97,65.00 509.74,211.69 502.35,65.00" fill="#52626a"/><polygon points="482.97,667.85 509.74,702.98 509.74,667.85" fill="#52626a"/><polygon points="482.97,667.85 482.97,702.98 509.74,702.98" fill="#52626a"/><polygon points="509.74,667.85 513.09,702.98 513.09,667.85" fill="#52626a"/><polygon points="509.74,667.85 509.74,702.98 513.09,702.98" fill="#52626a"/><polygon points="513.09,667.85 515.60,702.98 515.60,667.85" fill="#52626a"/><polygon points="513.09,667.85 513.09,702.98 515.60,702.98" fill="#52626a"/><polygon points="515.60,667.85 520.66,702.98 520.66,667.85" fill="#52626a"/><polygon points="515.60,667.85 515.60,702.98 520.66,702.98" fill="#52626a"/><polygon points="520.66,667.85 530.32,702.98 530.32,667.85" fill="#52626a"/><polygon points="520.66,667.85 520.66,702.98 530.32,702.98" fill="#52626a"/><polygon points="530.32,667.85 535.22,702.98 535.22,667.85" fill="#52626a"/><polygon points="530.32,667.85 530.32,702.98 535.22,702.98" fill="#52626a"/><polygon points="535.22,667.85 541.36,702.98 541.36,667.85" fill="#52626a"/><polygon points="535.22,667.85 535.22,702.98 541.36,702.98" fill="#52626a"/><polygon points="541.36,667.85 546.13,702.98 546.13,667.85" fill="#52626a"/><polygon points="541.36,667.85 541.36,702.98 546.13,702.98" fill="#52626a"/><polygon points="546.13,667.85 556.59,702.98 556.59,667.85" fill="#52626a"/><polygon points="546.13,667.85 546.13,702.98 556.59,702.98" fill="#52626a"/><polygon points="556.59,667.85 560.69,702.98 560.69,667.85" fill="#52626a"/><polygon points="556.59,667.85 556.59,702.98 560.69,702.98" fill="#52626a"/><polygon points="560.69,667.85 568.01,702.98 568.01,667.85" fill="#52626a"/><polygon points="560.69,667.85 560.69,702.98 568.01,702.98" fill="#52626a"/><polygon points="568.01,667.85 571.73,702.98 571.73,667.85" fill="#52626a"/><polygon points="568.01,667.85 568.01,702.98 571.73,702.98" fill="#52626a"/><polygon points="571.73,667.85 583.23,702.98 583.23,667.85" fill="#52626a"/><polygon points="571.73,667.85 571.73,702.98 583.23,702.98" fill="#52626a"/><polygon points="583.23,667.85 586.45,702.98 586.45,667.85" fill="#52626a"/><polygon points="583.23,667.85 583.23,702.98 586.45,702.98" fill="#52626a"/><polygon points="586.45,667.85 594.65,702.98 594.65,667.85" fill="#52626a"/><polygon points="586.45,667.85 586.45,702.98 594.65,702.98" fill="#52626a"/><polygon points="594.65,667.85 597.62,702.98 597.62,667.85" fill="#52626a"/><polygon points="594.65,667.85 594.65,702.98 597.62,702.98" fill="#52626a"/><polygon points="597.62,667.85 601.59,702.98 601.59,667.85" fill="#52626a"/><polygon points="597.62,667.85 597.62,702.98 601.59,702.98" fill="#52626a"/><polygon points="601.59,667.85 609.71,702.98 609.71,667.85" fill="#52626a"/><polygon points="601.59,667.85 601.59,702.98 609.71,702.98" fill="#52626a"/><polygon points="609.71,667.85 612.51,702.98 612.51,667.85" fill="#52626a"/><polygon points="609.71,667.85 609.71,702.98 612.51,702.98" fill="#52626a"/><polygon points="612.51,667.85 621.00,702.98 621.00,667.85" fill="#52626a"/><polygon points="612.51,667.85 612.51,702.98 621.00,702.98" fill="#52626a"/><polygon points="621.00,667.85 623.68,702.98 623.68,667.85" fill="#52626a"/><polygon points="621.00,667.85 621.00,702.98 623.68,702.98" fill="#52626a"/><polygon points="623.68,667.85 636.39,702.98 636.39,667.85" fill="#52626a"/><polygon points="623.68,667.85 623.68,702.98 636.39,702.98" fill="#52626a"/><polygon points="636.39,667.85 638.57,702.98 638.57,667.85" fill="#52626a"/><polygon points="636.39,667.85 636.39,702.98 638.57,702.98" fill="#52626a"/><polygon points="638.57,667.85 647.94,702.98 647.94,667.85" fill="#52626a"/><polygon points="638.57,667.85 638.57,702.98 647.94,702.98" fill="#52626a"/><polygon points="647.94,667.85 649.86,702.98 649.86,667.85" fill="#52626a"/><polygon points="647.94,667.85 647.94,702.98 649.86,702.98" fill="#52626a"/><polygon points="649.86,667.85 663.16,702.98 663.16,667.85" fill="#52626a"/><polygon points="649.86,667.85 649.86,702.98 663.16,702.98" fill="#52626a"/><polygon points="663.16,667.85 664.92,702.98 664.92,667.85" fill="#52626a"/><polygon points="663.16,667.85 663.16,702.98 664.92,702.98" fill="#52626a"/><polygon points="664.92,667.85 670.48,702.98 670.48,667.85" fill="#52626a"/><polygon points="664.92,667.85 664.92,702.98 670.48,702.98" fill="#52626a"/><polygon points="670.48,667.85 674.58,702.98 674.58,667.85" fill="#52626a"/><polygon points="670.48,667.85 670.48,702.98 674.58,702.98" fill="#52626a"/><polygon points="674.58,667.85 676.21,702.98 676.21,667.85" fill="#52626a"/><polygon points="674.58,667.85 674.58,702.98 676.21,702.98" fill="#52626a"/><polygon points="676.21,667.85 690.14,702.98 690.14,667.85" fill="#52626a"/><polygon points="676.21,667.85 676.21,702.98 690.14,702.98" fill="#52626a"/><polygon points="690.14,667.85 691.27,702.98 691.27,667.85" fill="#52626a"/><polygon points="690.14,667.85 690.14,702.98 691.27,702.98" fill="#52626a"/><polygon points="691.27,667.85 701.81,702.98 701.81,667.85" fill="#52626a"/><polygon points="691.27,667.85 691.27,702.98 701.81,702.98" fill="#52626a"/><polygon points="701.81,667.85 702.69,702.98 702.69,667.85" fill="#52626a"/><polygon points="701.81,667.85 701.81,702.98 702.69,702.98" fill="#52626a"/><polygon points="702.69,667.85 717.37,702.98 717.37,667.85" fill="#52626a"/><polygon points="702.69,667.85 702.69,702.98 717.37,702.98" fill="#52626a"/><polygon points="717.37,667.85 717.91,702.98 717.91,667.85" fill="#52626a"/><polygon points="717.37,667.85 717.37,702.98 717.91,702.98" fill="#52626a"/><polygon points="717.91,667.85 729.04,702.98 729.04,667.85" fill="#52626a"/><polygon points="717.91,667.85 717.91,702.98 729.04,702.98" fill="#52626a"/><polygon points="729.04,667.85 729.33,702.98 729.33,667.85" fill="#52626a"/><polygon points="729.04,667.85 729.04,702.98 729.33,702.98" fill="#52626a"/><polygon points="729.33,667.85 744.56,702.98 744.56,667.85" fill="#52626a"/><polygon points="729.33,667.85 729.33,702.98 744.56,702.98" fill="#52626a"/><polygon points="744.56,667.85 744.77,702.98 744.77,667.85" fill="#52626a"/><polygon points="744.56,667.85 744.56,702.98 744.77,702.98" fill="#52626a"/><polygon points="744.77,667.85 756.10,702.98 756.10,667.85" fill="#52626a"/><polygon points="744.77,667.85 744.77,702.98 756.10,702.98" fill="#52626a"/><polygon points="756.10,667.85 756.56,702.98 756.56,667.85" fill="#52626a"/><polygon points="756.10,667.85 756.10,702.98 756.56,702.98" fill="#52626a"/><polygon points="756.56,667.85 771.49,702.98 771.49,667.85" fill="#52626a"/><polygon points="756.56,667.85 756.56,702.98 771.49,702.98" fill="#52626a"/><polygon points="771.49,667.85 772.12,702.98 772.12,667.85" fill="#52626a"/><polygon points="771.49,667.85 771.49,702.98 772.12,702.98" fill="#52626a"/><polygon points="772.12,667.85 783.04,702.98 783.04,667.85" fill="#52626a"/><polygon points="772.12,667.85 772.12,702.98 783.04,702.98" fill="#52626a"/><polygon points="783.04,667.85 783.79,702.98 783.79,667.85" fill="#52626a"/><polygon points="783.04,667.85 783.04,702.98 783.79,702.98" fill="#52626a"/><polygon points="783.79,667.85 798.43,702.98 798.43,667.85" fill="#52626a"/><polygon points="783.79,667.85 783.79,702.98 798.43,702.98" fill="#52626a"/><polygon points="798.43,667.85 799.69,702.98 799.69,667.85" fill="#52626a"/><polygon points="798.43,667.85 798.43,702.98 799.69,702.98" fill="#52626a"/><polygon points="799.69,667.85 800.63,702.98 800.63,667.85" fill="#52626a"/><polygon points="799.69,667.85 799.69,702.98 800.63,702.98" fill="#52626a"/><polygon points="800.63,667.85 810.10,702.98 810.10,667.85" fill="#52626a"/><polygon points="800.63,667.85 800.63,702.98 810.10,702.98" fill="#52626a"/><polygon points="810.10,667.85 811.61,702.98 811.61,667.85" fill="#52626a"/><polygon points="810.10,667.85 810.10,702.98 811.61,702.98" fill="#52626a"/><polygon points="811.61,667.85 825.66,702.98 825.66,667.85" fill="#52626a"/><polygon points="811.61,667.85 811.61,702.98 825.66,702.98" fill="#52626a"/><polygon points="825.66,667.85 827.50,702.98 827.50,667.85" fill="#52626a"/><polygon points="825.66,667.85 825.66,702.98 827.50,702.98" fill="#52626a"/><polygon points="827.50,667.85 837.33,702.98 837.33,667.85" fill="#52626a"/><polygon points="827.50,667.85 827.50,702.98 837.33,702.98" fill="#52626a"/><polygon points="837.33,667.85 839.42,702.98 839.42,667.85" fill="#52626a"/><polygon points="837.33,667.85 837.33,702.98 839.42,702.98" fill="#52626a"/><polygon points="839.42,667.85 852.89,702.98 852.89,667.85" fill="#52626a"/><polygon points="839.42,667.85 839.42,702.98 852.89,702.98" fill="#52626a"/><polygon points="852.89,667.85 855.48,702.98 855.48,667.85" fill="#52626a"/><polygon points="852.89,667.85 852.89,702.98 855.48,702.98" fill="#52626a"/><polygon points="855.48,667.85 864.68,702.98 864.68,667.85" fill="#52626a"/><polygon points="855.48,667.85 855.48,702.98 864.68,702.98" fill="#52626a"/><polygon points="864.68,667.85 867.53,702.98 867.53,667.85" fill="#52626a"/><polygon points="864.68,667.85 864.68,702.98 867.53,702.98" fill="#52626a"/><polygon points="867.53,667.85 880.41,702.98 880.41,667.85" fill="#52626a"/><polygon points="867.53,667.85 867.53,702.98 880.41,702.98" fill="#52626a"/><polygon points="880.41,667.85 883.59,702.98 883.59,667.85" fill="#52626a"/><polygon points="880.41,667.85 880.41,702.98 883.59,702.98" fill="#52626a"/><polygon points="883.59,667.85 888.90,702.98 888.90,667.85" fill="#52626a"/><polygon points="883.59,667.85 883.59,702.98 888.90,702.98" fill="#52626a"/><polygon points="888.90,667.85 892.21,702.98 892.21,667.85" fill="#52626a"/><polygon points="888.90,667.85 888.90,702.98 892.21,702.98" fill="#52626a"/><polygon points="892.21,667.85 895.64,702.98 895.64,667.85" fill="#52626a"/><polygon points="892.21,667.85 892.21,702.98 895.64,702.98" fill="#52626a"/><polygon points="895.64,667.85 907.93,702.98 907.93,667.85" fill="#52626a"/><polygon points="895.64,667.85 895.64,702.98 907.93,702.98" fill="#52626a"/><polygon points="907.93,667.85 911.86,702.98 911.86,667.85" fill="#52626a"/><polygon points="907.93,667.85 907.93,702.98 911.86,702.98" fill="#52626a"/><polygon points="911.86,667.85 919.85,702.98 919.85,667.85" fill="#52626a"/><polygon points="911.86,667.85 911.86,702.98 919.85,702.98" fill="#52626a"/><polygon points="919.85,667.85 924.04,702.98 924.04,667.85" fill="#52626a"/><polygon points="919.85,667.85 919.85,702.98 924.04,702.98" fill="#52626a"/><polygon points="924.04,667.85 935.75,702.98 935.75,667.85" fill="#52626a"/><polygon points="924.04,667.85 924.04,702.98 935.75,702.98" fill="#52626a"/><polygon points="935.75,667.85 940.43,702.98 940.43,667.85" fill="#52626a"/><polygon points="935.75,667.85 935.75,702.98 940.43,702.98" fill="#52626a"/><polygon points="940.43,667.85 947.79,702.98 947.79,667.85" fill="#52626a"/><polygon points="940.43,667.85 940.43,702.98 947.79,702.98" fill="#52626a"/><polygon points="947.79,667.85 952.73,702.98 952.73,667.85" fill="#52626a"/><polygon points="947.79,667.85 947.79,702.98 952.73,702.98" fill="#52626a"/><polygon points="952.73,667.85 963.86,702.98 963.86,667.85" fill="#52626a"/><polygon points="952.73,667.85 952.73,702.98 963.86,702.98" fill="#52626a"/><polygon points="963.86,667.85 969.13,702.98 969.13,667.85" fill="#52626a"/><polygon points="963.86,667.85 963.86,702.98 969.13,702.98" fill="#52626a"/><polygon points="969.13,667.85 975.90,702.98 975.90,667.85" fill="#52626a"/><polygon points="969.13,667.85 969.13,702.98 975.90,702.98" fill="#52626a"/><polygon points="975.90,667.85 981.42,702.98 981.42,667.85" fill="#52626a"/><polygon points="975.90,667.85 975.90,702.98 981.42,702.98" fill="#52626a"/><polygon points="981.42,667.85 991.96,702.98 991.96,667.85" fill="#52626a"/><polygon points="981.42,667.85 981.42,702.98 991.96,702.98" fill="#52626a"/><polygon points="991.96,667.85 997.65,702.98 997.65,667.85" fill="#52626a"/><polygon points="991.96,667.85 991.96,702.98 997.65,702.98" fill="#52626a"/><polygon points="997.65,667.85 1004.01,702.98 1004.01,667.85" fill="#52626a"/><polygon points="997.65,667.85 997.65,702.98 1004.01,702.98" fill="#52626a"/><polygon points="1004.01,667.85 1009.82,702.98 1009.82,667.85" fill="#52626a"/><polygon points="1004.01,667.85 1004.01,702.98 1009.82,702.98" fill="#52626a"/><polygon points="1009.82,667.85 1020.07,702.98 1020.07,667.85" fill="#52626a"/><polygon points="1009.82,667.85 1009.82,702.98 1020.07,702.98" fill="#52626a"/><polygon points="1020.07,667.85 1026.55,702.98 1026.55,667.85" fill="#52626a"/><polygon points="1020.07,667.85 1020.07,702.98 1026.55,702.98" fill="#52626a"/><polygon points="1026.55,667.85 1032.24,702.98 1032.24,667.85" fill="#52626a"/><polygon points="1026.55,667.85 1026.55,702.98 1032.24,702.98" fill="#52626a"/><polygon points="1032.24,667.85 1039.10,702.98 1039.10,667.85" fill="#52626a"/><polygon points="1032.24,667.85 1032.24,702.98 1039.10,702.98" fill="#52626a"/><polygon points="1039.10,667.85 1048.47,702.98 1048.47,667.85" fill="#52626a"/><polygon points="1039.10,667.85 1039.10,702.98 1048.47,702.98" fill="#52626a"/><polygon points="1048.47,667.85 1055.83,702.98 1055.83,667.85" fill="#52626a"/><polygon points="1048.47,667.85 1048.47,702.98 1055.83,702.98" fill="#52626a"/><polygon points="1055.83,667.85 1060.77,702.98 1060.77,667.85" fill="#52626a"/><polygon points="1055.83,667.85 1055.83,702.98 1060.77,702.98" fill="#52626a"/><polygon points="1060.77,667.85 1068.38,702.98 1068.38,667.85" fill="#52626a"/><polygon points="1060.77,667.85 1060.77,702.98 1068.38,702.98" fill="#52626a"/><polygon points="1068.38,667.85 1077.16,702.98 1077.16,667.85" fill="#52626a"/><polygon points="1068.38,667.85 1068.38,702.98 1077.16,702.98" fill="#52626a"/><polygon points="1077.16,667.85 1085.11,702.98 1085.11,667.85" fill="#52626a"/><polygon points="1077.16,667.85 1077.16,702.98 1085.11,702.98" fill="#52626a"/><polygon points="1085.11,667.85 1089.46,702.98 1089.46,667.85" fill="#52626a"/><polygon points="1085.11,667.85 1085.11,702.98 1089.46,702.98" fill="#52626a"/><polygon points="1089.46,667.85 1097.66,702.98 1097.66,667.85" fill="#52626a"/><polygon points="1089.46,667.85 1089.46,702.98 1097.66,702.98" fill="#52626a"/><polygon points="1097.66,667.85 1105.86,702.98 1105.86,667.85" fill="#52626a"/><polygon points="1097.66,667.85 1097.66,702.98 1105.86,702.98" fill="#52626a"/><polygon points="1105.86,667.85 1114.56,702.98 1114.56,667.85" fill="#52626a"/><polygon points="1105.86,667.85 1105.86,702.98 1114.56,702.98" fill="#52626a"/><polygon points="1114.56,667.85 1118.28,702.98 1118.28,667.85" fill="#52626a"/><polygon points="1114.56,667.85 1114.56,702.98 1118.28,702.98" fill="#52626a"/><polygon points="1118.28,667.85 1127.23,702.98 1127.23,667.85" fill="#52626a"/><polygon points="1118.28,667.85 1118.28,702.98 1127.23,702.98" fill="#52626a"/><polygon points="1127.23,667.85 1129.57,702.98 1129.57,667.85" fill="#52626a"/><polygon points="1127.23,667.85 1127.23,702.98 1129.57,702.98" fill="#52626a"/><polygon points="1129.57,65.00 1134.84,702.98 1134.84,65.00" fill="#52626a"/><polygon points="1129.57,65.00 1129.57,702.98 1134.84,702.98" fill="#52626a"/><polygon points="1134.84,65.00 1144.13,702.98 1144.13,65.00" fill="#52626a"/><polygon points="1134.84,65.00 1134.84,702.98 1144.13,702.98" fill="#52626a"/><polygon points="1144.13,65.00 1144.63,702.98 1144.63,65.00" fill="#52626a"/><polygon points="1144.13,65.00 1144.13,702.98 1144.63,702.98" fill="#52626a"/><polygon points="1144.63,65.00 1147.27,702.98 1147.27,65.00" fill="#52626a"/><polygon points="1144.63,65.00 1144.63,702.98 1147.27,702.98" fill="#52626a"/><polygon points="1147.27,65.00 1156.80,702.98 1156.80,65.00" fill="#52626a"/><polygon points="1147.27,65.00 1147.27,702.98 1156.80,702.98" fill="#52626a"/><polygon points="1156.80,65.00 1163.83,702.98 1163.83,65.00" fill="#52626a"/><polygon points="1156.80,65.00 1156.80,702.98 1163.83,702.98" fill="#52626a"/><polygon points="1163.83,65.00 1164.71,702.98 1164.71,65.00" fill="#52626a"/><polygon points="1163.83,65.00 1163.83,702.98 1164.71,702.98" fill="#52626a"/><polygon points="1164.71,667.85 1165.00,668.97 1165.00,667.85" fill="#52626a"/><polygon points="1164.71,667.85 1164.71,702.98 1165.00,702.98" fill="#52626a"/><polygon points="1164.71,667.85 1165.00,702.98 1165.00,668.97" fill="#52626a"/><polygon points="100.43,211.69 100.43,667.85 1129.57,667.85" fill="#f0eee7"/><polygon points="1129.57,667.85 1129.57,100.13 509.74,100.13" fill="#f0eee7"/><polygon points="509.74,211.69 100.43,211.69 1129.57,667.85" fill="#f0eee7"/><polygon points="1129.57,667.85 509.74,100.13 509.74,211.69" fill="#f0eee7"/><rect x="471.680862390205" y="492.1759382486025" width="657.8919350545648" height="175.6720787862658" fill="#dfd7c7" stroke="#6c7c7f" stroke-width="1.5"/><text x="800.6268299174874" y="580.0119776417354" text-anchor="middle" font-size="18" font-family="Microsoft YaHei,PingFang SC,sans-serif" fill="#20343f">2247厨房</text><rect x="112.13867447431463" y="457.91988288528074" width="204.95075858397658" height="199.0950226244346" fill="#dfd7c7" stroke="#6c7c7f" stroke-width="1.5"/><text x="214.6140537663029" y="557.467394197498" text-anchor="middle" font-size="18" font-family="Microsoft YaHei,PingFang SC,sans-serif" fill="#20343f">低储物</text><text x="24" y="28" font-size="16" font-family="Microsoft YaHei,PingFang SC,sans-serif" fill="#20343f">图上约西北 · 设计尺寸 / 毫米</text></svg>